<svg xmlns="http://www.w3.org/2000/svg" xmlns:xlink="http://www.w3.org/1999/xlink" width="700" height="400" viewBox="0 0 700 400">
  <defs>
    <filter id="Rectangle_1" x="108" y="209" width="63" height="63" filterUnits="userSpaceOnUse">
      <feOffset input="SourceAlpha"/>
      <feGaussianBlur stdDeviation="3" result="blur"/>
      <feFlood flood-color="#ee3b3b"/>
      <feComposite operator="in" in2="blur"/>
      <feComposite in="SourceGraphic"/>
    </filter>
    <filter id="Rectangle_2" x="454" y="202" width="65" height="65" filterUnits="userSpaceOnUse">
      <feOffset input="SourceAlpha"/>
      <feGaussianBlur stdDeviation="3" result="blur-2"/>
      <feFlood flood-color="#ee3b3b"/>
      <feComposite operator="in" in2="blur-2"/>
      <feComposite in="SourceGraphic"/>
    </filter>
    <clipPath id="clip-Instruction2">
      <rect width="700" height="400"/>
    </clipPath>
  </defs>
  <g id="Instruction2" clip-path="url(#clip-Instruction2)">
    <rect width="700" height="400" fill="#1f1c1c"/>
    <text id="Be_aware_of_Lava_blocks_some_are_static_some_can_move_" data-name="Be aware of &quot;Lava&quot; blocks some are static 
some can move !" transform="translate(350 52)" fill="#fafafa" font-size="20" font-family="OCRAExtended, OCR A"><tspan x="-253.682" y="0">Be aware of </tspan><tspan y="0" fill="#da3b3b">&quot;Lava&quot; </tspan><tspan y="0" fill="#f9f9f9">blocks</tspan><tspan y="0" xml:space="preserve"> some are static </tspan><tspan x="-90.601" y="21">some can move !</tspan></text>
    <g transform="matrix(1, 0, 0, 1, 0, 0)" filter="url(#Rectangle_1)">
      <rect id="Rectangle_1-2" data-name="Rectangle 1" width="45" height="45" transform="translate(117 218)" fill="#ee3b3b"/>
    </g>
    <g transform="matrix(1, 0, 0, 1, 0, 0)" filter="url(#Rectangle_2)">
      <rect id="Rectangle_2-2" data-name="Rectangle 2" width="47" height="47" transform="translate(463 211)" fill="#ee3b3b"/>
    </g>
    <path id="Path_1" data-name="Path 1" d="M434.537,200s-35.77-9.154-54.317,0" transform="translate(0 37)" fill="none" stroke="#f7f7f7" stroke-width="2"/>
    <path id="Path_2" data-name="Path 2" d="M381.889,185.267c-5.656,7.706-18.252,15.37-18.252,15.37s15.234,2.964,19.35,7" transform="translate(2 38.515)" fill="none" stroke="#fff" stroke-width="2"/>
    <g id="Path_3" data-name="Path 3" transform="translate(537.391 232.183)" fill="none">
      <path d="M.248,5.085S2.484,4.513,6.127,3.8s8.694-1.573,14.324-2.145a104.937,104.937,0,0,1,17.8-.429c5.962.429,11.675,1.573,16.312,3.862" stroke="none"/>
      <path d="M 0.4957733154296875 6.054214000701904 C 0.5180091857910156 6.048526763916016 1.092998504638672 5.902702808380127 2.115821838378906 5.669637680053711 C 3.138648986816406 5.436572074890137 4.609306335449219 5.116265296936035 6.422882080078125 4.761611938476562 C 8.236457824707031 4.406958103179932 10.39295196533203 4.01795768737793 12.78744506835938 3.647504568099976 C 15.18193817138672 3.277051687240601 17.81443023681641 2.925146579742432 20.58000564575195 2.644684314727783 C 21.60567092895508 2.540669679641724 22.61678695678711 2.449740886688232 23.61287879943848 2.371855735778809 C 24.60897064208984 2.293970584869385 25.59003829956055 2.229129314422607 26.55560684204102 2.177289724349976 C 27.52117729187012 2.125450134277344 28.47124862670898 2.086612224578857 29.40534973144531 2.060734510421753 C 30.33945083618164 2.034856557846069 31.2575798034668 2.021938800811768 32.15925979614258 2.021938800811768 C 34.45177459716797 2.021938800811768 36.63833618164062 2.10539722442627 38.71174240112305 2.271598815917969 C 40.78514862060547 2.437800168991089 42.74539947509766 2.686744451522827 44.58528137207031 3.017715930938721 C 46.42516326904297 3.348687410354614 48.14467620849609 3.761685848236084 49.73661422729492 4.255995750427246 C 51.32855224609375 4.750306129455566 52.79291152954102 5.325927257537842 54.12248229980469 5.982144355773926 L 55.00764465332031 4.188694000244141 C 53.92088317871094 3.652316570281982 52.75501251220703 3.166707992553711 51.51247024536133 2.732446670532227 C 50.26992416381836 2.298185348510742 48.95070648193359 1.915271759033203 47.55724716186523 1.58428418636322 C 46.16379165649414 1.253296613693237 44.69609832763672 0.9742354154586792 43.15660095214844 0.7476792335510254 C 41.61710357666016 0.521122932434082 40.00580596923828 0.3470717072486877 38.32514190673828 0.226104199886322 C 37.84098052978516 0.1912550330162048 37.35089492797852 0.1607674360275269 36.85502243041992 0.1346386075019836 C 36.35914993286133 0.1085097789764404 35.85749053955078 0.08673983812332153 35.35018157958984 0.06932604312896729 C 34.84287261962891 0.05191218852996826 34.32991409301758 0.03885453939437866 33.81143951416016 0.03015029430389404 C 33.29296493530273 0.0214461088180542 32.76897811889648 0.01709532737731934 32.2396125793457 0.01709532737731934 C 31.31155395507812 0.01709532737731934 30.36692428588867 0.03046315908432007 29.40638732910156 0.05718308687210083 C 28.44585227966309 0.08390301465988159 27.46941184997559 0.1239750385284424 26.47773361206055 0.1773834228515625 C 25.48605728149414 0.2307918071746826 24.47914123535156 0.2975366115570068 23.45765686035156 0.3776019811630249 C 22.43617248535156 0.457667350769043 21.40011596679688 0.5510533452033997 20.35015487670898 0.6577441692352295 C 17.54874420166016 0.9424066543579102 14.88179016113281 1.299477338790894 12.45574188232422 1.675321102142334 C 10.02969360351562 2.051164865493774 7.844551086425781 2.445781707763672 6.006767272949219 2.80553674697876 C 4.168983459472656 3.165291786193848 2.678558349609375 3.490184783935547 1.641944885253906 3.72658109664917 C 0.6053314208984375 3.962977409362793 0.02252960205078125 4.110876560211182 -7.62939453125e-06 4.116643905639648 L 0.4957733154296875 6.054214000701904 Z" stroke="none" fill="#f7f7f7"/>
    </g>
    <g id="Path_4" data-name="Path 4" transform="translate(586.482 222.766)" fill="none">
      <path d="M1.8.587a40.211,40.211,0,0,0,5.239,5.72c1.977,1.824,4.082,3.524,6.01,4.981s3.68,2.67,4.949,3.519,2.057,1.334,2.057,1.334-.952.187-2.445.532-3.525.847-5.687,1.476A59.176,59.176,0,0,0,5.463,20.39,15.871,15.871,0,0,0,.7,23.217" stroke="none"/>
      <path d="M 1.408319473266602 23.92754173278809 C 1.799087524414062 23.54000854492188 2.325115203857422 23.14530754089355 2.980106353759766 22.74625015258789 C 3.635097503662109 22.34719085693359 4.419052124023438 21.94377326965332 5.325675010681152 21.53881072998047 C 6.232297897338867 21.13384819030762 7.261589050292969 20.72734069824219 8.407251358032227 20.32209968566895 C 9.552914619445801 19.9168586730957 10.81494903564453 19.51288604736328 12.18705940246582 19.11299133300781 C 13.24507427215576 18.80463790893555 14.2753963470459 18.52648735046387 15.2263355255127 18.2825927734375 C 16.17727661132812 18.03869819641113 17.0488338470459 17.82905960083008 17.78931999206543 17.65773391723633 C 18.52980613708496 17.48640823364258 19.13922119140625 17.3533935546875 19.56587600708008 17.26274681091309 C 19.99253082275391 17.17210006713867 20.23642539978027 17.12381935119629 20.24586868286133 17.12196159362793 L 22.75203895568848 16.62882232666016 L 20.57720947265625 15.28926181793213 C 20.54612731933594 15.27011680603027 19.74955558776855 14.77647972106934 18.48665618896484 13.92891407012939 C 17.2237548828125 13.08134841918945 15.4945240020752 11.87985515594482 13.59812164306641 10.44499778747559 C 11.70171928405762 9.010139465332031 9.638145446777344 7.341917991638184 7.706557273864746 5.560897350311279 C 5.774969100952148 3.779876947402954 3.975366592407227 1.886056900024414 2.606908798217773 1.9073486328125e-06 L 0.9881191253662109 1.174531936645508 C 1.589210510253906 2.002979278564453 2.280923843383789 2.853759288787842 3.06158447265625 3.725278377532959 C 3.842243194580078 4.596797466278076 4.711851119995117 5.489055633544922 5.668731689453125 6.400459289550781 C 6.625612258911133 7.311862945556641 7.669766426086426 8.242412567138672 8.799522399902344 9.190513610839844 C 9.929277420043945 10.13861560821533 11.14463424682617 11.10426902770996 12.44392013549805 12.08588218688965 C 12.93931674957275 12.46015644073486 13.42235946655273 12.81801414489746 13.88830375671387 13.15765476226807 C 14.35424709320068 13.49729537963867 14.80309200286865 13.81871891021729 15.23009395599365 14.12012481689453 C 15.65709590911865 14.42153167724609 16.062255859375 14.70291996002197 16.44082641601562 14.96249008178711 C 16.81939697265625 15.22206020355225 17.17138290405273 15.45981216430664 17.49203491210938 15.6739444732666 C 17.11146545410156 15.76144409179688 16.69455528259277 15.85937690734863 16.24851036071777 15.96717834472656 C 15.80246639251709 16.07497978210449 15.3272876739502 16.19264984130859 14.83018112182617 16.31962585449219 C 14.33307361602783 16.44660186767578 13.81403923034668 16.58288192749023 13.28028106689453 16.72790145874023 C 12.74652481079102 16.87292289733887 12.1980447769165 17.02668380737305 11.64204978942871 17.18862152099609 C 10.16737174987793 17.61813735961914 8.816554069519043 18.0521183013916 7.591297149658203 18.48978805541992 C 6.366039276123047 18.92745780944824 5.266342163085938 19.36881637573242 4.293904304504395 19.81308746337891 C 3.321466445922852 20.25735855102539 2.476287841796875 20.70454406738281 1.76007080078125 21.15386581420898 C 1.043853759765625 21.60318756103516 0.4565963745117188 22.05464363098145 0 22.50746154785156 L 1.408319473266602 23.92754173278809 Z" stroke="none" fill="#fff"/>
    </g>
    <g id="Path_5" data-name="Path 5" transform="translate(481.789 139.254)" fill="none">
      <path d="M5.091,54.951s-.454-2.262-.978-5.938S3,40.248,2.721,34.6a104.937,104.937,0,0,1,.5-17.8C3.964,10.864,5.406,5.219,7.934.708" stroke="none"/>
      <path d="M 6.071866989135742 54.75401306152344 C 6.067351341247559 54.73151016235352 5.951819896697998 54.14967727661133 5.772604942321777 53.11605834960938 C 5.593388557434082 52.08243560791016 5.350489616394043 50.59703063964844 5.09123706817627 48.76737594604492 C 4.831984519958496 46.93772888183594 4.556379318237305 44.76382827758789 4.311752319335938 42.35322952270508 C 4.06712532043457 39.94263076782227 3.853476047515869 37.29533004760742 3.718137264251709 34.51886367797852 C 3.667944431304932 33.48916244506836 3.63005805015564 32.47467041015625 3.604411125183105 31.47587013244629 C 3.578763961791992 30.4770679473877 3.565356731414795 29.49395179748535 3.564122200012207 28.52699089050293 C 3.562887668609619 27.56003189086914 3.573825836181641 26.60923004150391 3.59687066078186 25.6750545501709 C 3.619915246963501 24.74087905883789 3.655066251754761 23.82333374023438 3.702256679534912 22.92288970947266 C 3.822237491607666 20.63351821899414 4.020017623901367 18.45431900024414 4.29450511932373 16.39245223999023 C 4.568992137908936 14.3305835723877 4.920186996459961 12.3860502243042 5.346996784210205 10.56601142883301 C 5.773806571960449 8.745972633361816 6.276231288909912 7.050430774688721 6.853179454803467 5.486545085906982 C 7.43012809753418 3.92266058921814 8.081598281860352 2.490432977676392 8.806501388549805 1.197025895118713 L 7.061834335327148 0.2192171216011047 C 6.469315528869629 1.276415705680847 5.923355102539062 2.415273666381836 5.424659252166748 3.63338828086853 C 4.925963401794434 4.851502418518066 4.474532127380371 6.148873805999756 4.071070194244385 7.523098468780518 C 3.667608499526978 8.897322654724121 3.312116384506226 10.34840106964111 3.00529956817627 11.87392997741699 C 2.698482990264893 13.39945983886719 2.440341472625732 14.99944019317627 2.23158073425293 16.67146873474121 C 2.171440124511719 17.15314292907715 2.115345239639282 17.64096260070801 2.063300132751465 18.13478851318359 C 2.011255264282227 18.62861251831055 1.963260293006897 19.12844657897949 1.919319868087769 19.6341495513916 C 1.875379323959351 20.13985061645508 1.835493564605713 20.65142250061035 1.799666166305542 21.16873168945312 C 1.763839244842529 21.68603897094727 1.732070922851562 22.20908164978027 1.704366207122803 22.73772048950195 C 1.655795335769653 23.66450881958008 1.619706630706787 24.60854148864746 1.596119403839111 25.56916236877441 C 1.572532176971436 26.5297794342041 1.56144642829895 27.50697708129883 1.562880992889404 28.50009155273438 C 1.564316034317017 29.49320411682129 1.578271389007568 30.50223350524902 1.604766845703125 31.52650833129883 C 1.631262063980103 32.55078125 1.670296907424927 33.59030532836914 1.721890926361084 34.64441299438477 C 1.859548568725586 37.45688247680664 2.076552391052246 40.13887023925781 2.32491135597229 42.58126449584961 C 2.573270797729492 45.02365493774414 2.852985382080078 47.22645568847656 3.11606502532959 49.08055114746094 C 3.379144906997681 50.93464279174805 3.625589609146118 52.44002914428711 3.807409763336182 53.48759460449219 C 3.989229917526245 54.53516006469727 4.106425285339355 55.12490463256836 4.111005306243896 55.14771270751953 L 6.071866989135742 54.75401306152344 Z" stroke="none" fill="#f7f7f7"/>
    </g>
    <g id="Path_6" data-name="Path 6" transform="translate(474.954 121.948)" fill="none">
      <path d="M.681,20.958a40.211,40.211,0,0,0,5.986-4.933c1.925-1.878,3.733-3.892,5.289-5.741s2.859-3.535,3.773-4.758,1.44-1.984,1.44-1.984.137.961.4,2.469.661,3.565,1.176,5.756a59.176,59.176,0,0,0,1.9,6.567,15.871,15.871,0,0,0,2.574,4.9" stroke="none"/>
      <path d="M 23.96846580505371 22.56781578063965 C 23.60191345214844 22.15729904174805 23.23528480529785 21.61133575439453 22.87105369567871 20.93635749816895 C 22.50682067871094 20.26137924194336 22.14498519897461 19.4573860168457 21.78802680969238 18.53081130981445 C 21.43106842041016 17.6042366027832 21.0789852142334 16.55508232116699 20.73426055908203 15.38978099822998 C 20.38953399658203 14.22447872161865 20.05216407775879 12.94303131103516 19.72462844848633 11.55187320709229 C 19.47207069396973 10.47916984558105 19.24822425842285 9.435703277587891 19.0544319152832 8.473301887512207 C 18.86063957214355 7.510900974273682 18.69690322875977 6.629566192626953 18.56456565856934 5.881128311157227 C 18.43222808837891 5.1326904296875 18.33129119873047 4.517148971557617 18.26309776306152 4.086335182189941 C 18.19490432739258 3.655521154403687 18.15945434570312 3.409434080123901 18.15809440612793 3.399904727935791 L 17.79679298400879 0.8713605403900146 L 16.34524536132812 2.973102807998657 C 16.32450103759766 3.003140687942505 15.78985118865967 3.77278470993042 14.87735271453857 4.989596366882324 C 13.96485328674316 6.206408500671387 12.67450523376465 7.870388031005859 11.14236354827881 9.689096450805664 C 9.610221862792969 11.50780487060547 7.836287975311279 13.48124313354492 5.956616878509521 15.31697273254395 C 4.076945781707764 17.15270233154297 2.091536998748779 18.85072326660156 0.1364474296569824 20.11859703063965 L 1.224646806716919 21.79664039611816 C 2.083417415618896 21.2397289276123 2.96923303604126 20.59349060058594 3.880414247512817 19.85951042175293 C 4.791595458984375 19.12553215026855 5.728142261505127 18.30381393432617 6.688376426696777 17.39594650268555 C 7.64861011505127 16.48807525634766 8.632532119750977 15.49405288696289 9.638460159301758 14.41546535491943 C 10.64438915252686 13.33687782287598 11.67232608795166 12.17372512817383 12.72059345245361 10.92759418487549 C 13.12028121948242 10.45246410369873 13.5029296875 9.988811492919922 13.86649036407471 9.541282653808594 C 14.23005104064941 9.093751907348633 14.57452487945557 8.662343978881836 14.89786529541016 8.251702308654785 C 15.22120666503906 7.841060161590576 15.52341365814209 7.451182842254639 15.80244064331055 7.086715221405029 C 16.08146667480469 6.722247123718262 16.33731651306152 6.383188724517822 16.56793594360352 6.074182510375977 C 16.63539886474609 6.458810329437256 16.71137619018555 6.880274295806885 16.79568672180176 7.331348896026611 C 16.87999725341797 7.782423496246338 16.97263717651367 8.26310920715332 17.07342147827148 8.766180038452148 C 17.17420768737793 9.269251823425293 17.28313827514648 9.794708251953125 17.40002250671387 10.33532333374023 C 17.51691055297852 10.87593841552734 17.64175415039062 11.43171310424805 17.77437210083008 11.99542236328125 C 18.12611961364746 13.49055767059326 18.48881149291992 14.86223697662354 18.86175537109375 16.10872077941895 C 19.23470115661621 17.35520553588867 19.6179027557373 18.47649383544922 20.01066970825195 19.47084999084473 C 20.40343856811523 20.46520614624023 20.80577850341797 21.33263206481934 21.21700096130371 22.07138252258301 C 21.62822151184082 22.81013488769531 22.04832458496094 23.42021369934082 22.47662544250488 23.89988327026367 L 23.96846580505371 22.56781578063965 Z" stroke="none" fill="#fff"/>
    </g>
    <g id="Path_7" data-name="Path 7" transform="translate(481.789 139.254)" fill="none">
      <path d="M5.091,54.951s-.454-2.262-.978-5.938S3,40.248,2.721,34.6a104.937,104.937,0,0,1,.5-17.8C3.964,10.864,5.406,5.219,7.934.708" stroke="none"/>
      <path d="M 6.071866989135742 54.75401306152344 C 6.067351341247559 54.73151016235352 5.951819896697998 54.14967727661133 5.772604942321777 53.11605834960938 C 5.593388557434082 52.08243560791016 5.350489616394043 50.59703063964844 5.09123706817627 48.76737594604492 C 4.831984519958496 46.93772888183594 4.556379318237305 44.76382827758789 4.311752319335938 42.35322952270508 C 4.06712532043457 39.94263076782227 3.853476047515869 37.29533004760742 3.718137264251709 34.51886367797852 C 3.667944431304932 33.48916244506836 3.63005805015564 32.47467041015625 3.604411125183105 31.47587013244629 C 3.578763961791992 30.4770679473877 3.565356731414795 29.49395179748535 3.564122200012207 28.52699089050293 C 3.562887668609619 27.56003189086914 3.573825836181641 26.60923004150391 3.59687066078186 25.6750545501709 C 3.619915246963501 24.74087905883789 3.655066251754761 23.82333374023438 3.702256679534912 22.92288970947266 C 3.822237491607666 20.63351821899414 4.020017623901367 18.45431900024414 4.29450511932373 16.39245223999023 C 4.568992137908936 14.3305835723877 4.920186996459961 12.3860502243042 5.346996784210205 10.56601142883301 C 5.773806571960449 8.745972633361816 6.276231288909912 7.050430774688721 6.853179454803467 5.486545085906982 C 7.43012809753418 3.92266058921814 8.081598281860352 2.490432977676392 8.806501388549805 1.197025895118713 L 7.061834335327148 0.2192171216011047 C 6.469315528869629 1.276415705680847 5.923355102539062 2.415273666381836 5.424659252166748 3.63338828086853 C 4.925963401794434 4.851502418518066 4.474532127380371 6.148873805999756 4.071070194244385 7.523098468780518 C 3.667608499526978 8.897322654724121 3.312116384506226 10.34840106964111 3.00529956817627 11.87392997741699 C 2.698482990264893 13.39945983886719 2.440341472625732 14.99944019317627 2.23158073425293 16.67146873474121 C 2.171440124511719 17.15314292907715 2.115345239639282 17.64096260070801 2.063300132751465 18.13478851318359 C 2.011255264282227 18.62861251831055 1.963260293006897 19.12844657897949 1.919319868087769 19.6341495513916 C 1.875379323959351 20.13985061645508 1.835493564605713 20.65142250061035 1.799666166305542 21.16873168945312 C 1.763839244842529 21.68603897094727 1.732070922851562 22.20908164978027 1.704366207122803 22.73772048950195 C 1.655795335769653 23.66450881958008 1.619706630706787 24.60854148864746 1.596119403839111 25.56916236877441 C 1.572532176971436 26.5297794342041 1.56144642829895 27.50697708129883 1.562880992889404 28.50009155273438 C 1.564316034317017 29.49320411682129 1.578271389007568 30.50223350524902 1.604766845703125 31.52650833129883 C 1.631262063980103 32.55078125 1.670296907424927 33.59030532836914 1.721890926361084 34.64441299438477 C 1.859548568725586 37.45688247680664 2.076552391052246 40.13887023925781 2.32491135597229 42.58126449584961 C 2.573270797729492 45.02365493774414 2.852985382080078 47.22645568847656 3.11606502532959 49.08055114746094 C 3.379144906997681 50.93464279174805 3.625589609146118 52.44002914428711 3.807409763336182 53.48759460449219 C 3.989229917526245 54.53516006469727 4.106425285339355 55.12490463256836 4.111005306243896 55.14771270751953 L 6.071866989135742 54.75401306152344 Z" stroke="none" fill="#f7f7f7"/>
    </g>
    <g id="Path_8" data-name="Path 8" transform="translate(474.954 121.948)" fill="none">
      <path d="M.681,20.958a40.211,40.211,0,0,0,5.986-4.933c1.925-1.878,3.733-3.892,5.289-5.741s2.859-3.535,3.773-4.758,1.44-1.984,1.44-1.984.137.961.4,2.469.661,3.565,1.176,5.756a59.176,59.176,0,0,0,1.9,6.567,15.871,15.871,0,0,0,2.574,4.9" stroke="none"/>
      <path d="M 23.96846580505371 22.56781578063965 C 23.60191345214844 22.15729904174805 23.23528480529785 21.61133575439453 22.87105369567871 20.93635749816895 C 22.50682067871094 20.26137924194336 22.14498519897461 19.4573860168457 21.78802680969238 18.53081130981445 C 21.43106842041016 17.6042366027832 21.0789852142334 16.55508232116699 20.73426055908203 15.38978099822998 C 20.38953399658203 14.22447872161865 20.05216407775879 12.94303131103516 19.72462844848633 11.55187320709229 C 19.47207069396973 10.47916984558105 19.24822425842285 9.435703277587891 19.0544319152832 8.473301887512207 C 18.86063957214355 7.510900974273682 18.69690322875977 6.629566192626953 18.56456565856934 5.881128311157227 C 18.43222808837891 5.1326904296875 18.33129119873047 4.517148971557617 18.26309776306152 4.086335182189941 C 18.19490432739258 3.655521154403687 18.15945434570312 3.409434080123901 18.15809440612793 3.399904727935791 L 17.79679298400879 0.8713605403900146 L 16.34524536132812 2.973102807998657 C 16.32450103759766 3.003140687942505 15.78985118865967 3.77278470993042 14.87735271453857 4.989596366882324 C 13.96485328674316 6.206408500671387 12.67450523376465 7.870388031005859 11.14236354827881 9.689096450805664 C 9.610221862792969 11.50780487060547 7.836287975311279 13.48124313354492 5.956616878509521 15.31697273254395 C 4.076945781707764 17.15270233154297 2.091536998748779 18.85072326660156 0.1364474296569824 20.11859703063965 L 1.224646806716919 21.79664039611816 C 2.083417415618896 21.2397289276123 2.96923303604126 20.59349060058594 3.880414247512817 19.85951042175293 C 4.791595458984375 19.12553215026855 5.728142261505127 18.30381393432617 6.688376426696777 17.39594650268555 C 7.64861011505127 16.48807525634766 8.632532119750977 15.49405288696289 9.638460159301758 14.41546535491943 C 10.64438915252686 13.33687782287598 11.67232608795166 12.17372512817383 12.72059345245361 10.92759418487549 C 13.12028121948242 10.45246410369873 13.5029296875 9.988811492919922 13.86649036407471 9.541282653808594 C 14.23005104064941 9.093751907348633 14.57452487945557 8.662343978881836 14.89786529541016 8.251702308654785 C 15.22120666503906 7.841060161590576 15.52341365814209 7.451182842254639 15.80244064331055 7.086715221405029 C 16.08146667480469 6.722247123718262 16.33731651306152 6.383188724517822 16.56793594360352 6.074182510375977 C 16.63539886474609 6.458810329437256 16.71137619018555 6.880274295806885 16.79568672180176 7.331348896026611 C 16.87999725341797 7.782423496246338 16.97263717651367 8.26310920715332 17.07342147827148 8.766180038452148 C 17.17420768737793 9.269251823425293 17.28313827514648 9.794708251953125 17.40002250671387 10.33532333374023 C 17.51691055297852 10.87593841552734 17.64175415039062 11.43171310424805 17.77437210083008 11.99542236328125 C 18.12611961364746 13.49055767059326 18.48881149291992 14.86223697662354 18.86175537109375 16.10872077941895 C 19.23470115661621 17.35520553588867 19.6179027557373 18.47649383544922 20.01066970825195 19.47084999084473 C 20.40343856811523 20.46520614624023 20.80577850341797 21.33263206481934 21.21700096130371 22.07138252258301 C 21.62822151184082 22.81013488769531 22.04832458496094 23.42021369934082 22.47662544250488 23.89988327026367 L 23.96846580505371 22.56781578063965 Z" stroke="none" fill="#fff"/>
    </g>
    <g id="Path_9" data-name="Path 9" transform="translate(482.507 280.888)" fill="none">
      <path d="M.987.69s.765,2.177,1.795,5.744,2.325,8.524,3.386,14.083a104.936,104.936,0,0,1,1.979,17.7C8.238,44.191,7.6,49.982,5.721,54.8" stroke="none"/>
      <path d="M 0.04320049285888672 1.021564483642578 C 0.05080413818359375 1.043220520019531 0.2461872100830078 1.603309631347656 0.567509651184082 2.6019287109375 C 0.8888339996337891 3.600547790527344 1.336097717285156 5.037693023681641 1.847465515136719 6.813457489013672 C 2.358833312988281 8.589221954345703 2.934304237365723 10.70360946655273 3.512041091918945 13.05670166015625 C 4.089778423309326 15.40979766845703 4.669780731201172 18.00160217285156 5.190212249755859 20.73220825195312 C 5.383223533630371 21.74490737915039 5.561930656433105 22.74424934387207 5.726334571838379 23.72976303100586 C 5.890738487243652 24.71527481079102 6.040838718414307 25.68695831298828 6.1766357421875 26.64433670043945 C 6.312433242797852 27.60171318054199 6.433927536010742 28.54478454589844 6.54111909866333 29.47307586669922 C 6.648310661315918 30.4013671875 6.741199493408203 31.31487655639648 6.819786071777344 32.21312713623047 C 7.01959228515625 34.49691390991211 7.127022743225098 36.68243408203125 7.142163276672363 38.76243591308594 C 7.157303333282471 40.84243774414062 7.080153465270996 42.81692504882812 6.910797595977783 44.67864990234375 C 6.74144172668457 46.54037475585938 6.479880332946777 48.28934097290039 6.126197814941406 49.91830444335938 C 5.772515296936035 51.54726409912109 5.326711654663086 53.05622100830078 4.788871765136719 54.43792724609375 L 6.652644157409668 55.16341018676758 C 7.092263221740723 54.03403854370117 7.474411487579346 52.83028030395508 7.798725128173828 51.55461502075195 C 8.123039245605469 50.27894973754883 8.389518737792969 48.93137741088867 8.597798347473145 47.51437377929688 C 8.806078910827637 46.09737396240234 8.956160545349121 44.61094284057617 9.047677993774414 43.05755615234375 C 9.139196395874023 41.50417327880859 9.172151565551758 39.88383865356445 9.14617919921875 38.19902801513672 C 9.138698577880859 37.71366882324219 9.12635612487793 37.22279357910156 9.109167098999023 36.72653198242188 C 9.091979026794434 36.23026657104492 9.069943428039551 35.72862243652344 9.043075561523438 35.22172546386719 C 9.016208648681641 34.71482849121094 8.984509468078613 34.20268249511719 8.947992324829102 33.6854248046875 C 8.91147518157959 33.16815948486328 8.87014102935791 32.64579010009766 8.824004173278809 32.11843872070312 C 8.743118286132812 31.19391059875488 8.64747142791748 30.25404167175293 8.537137031555176 29.29948806762695 C 8.426802635192871 28.34493637084961 8.301780700683594 27.37570571899414 8.162144660949707 26.3924560546875 C 8.022509574890137 25.40920639038086 7.868260383605957 24.41193962097168 7.699471473693848 23.40131950378418 C 7.530682563781738 22.39070510864258 7.347352981567383 21.36672592163086 7.149558067321777 20.33005905151367 C 6.621820449829102 17.56412124633789 6.03366756439209 14.93843460083008 5.447810173034668 12.55437469482422 C 4.861952781677246 10.17031478881836 4.278389930725098 8.027881622314453 3.759830474853516 6.228443145751953 C 3.241271018981934 4.429012298583984 2.787714958190918 2.972572326660156 2.46187162399292 1.960506439208984 C 2.136028289794922 0.9484443664550781 1.937896728515625 0.3807487487792969 1.930186748504639 0.358795166015625 L 0.04320049285888672 1.021564483642578 Z" stroke="none" fill="#f7f7f7"/>
    </g>
    <g id="Path_10" data-name="Path 10" transform="translate(478.362 328.971)" fill="none">
      <path d="M23.408,1.842A40.211,40.211,0,0,0,18.167,7.56c-1.644,2.128-3.155,4.373-4.438,6.421s-2.339,3.9-3.074,5.237S9.5,21.383,9.5,21.383s-.269-.932-.743-2.389S7.611,15.556,6.8,13.458A59.176,59.176,0,0,0,4,7.22,15.871,15.871,0,0,0,.769,2.725" stroke="none"/>
      <path d="M 0.1227340698242188 3.488388061523438 C 0.5428524017333984 3.843893051147461 0.9818954467773438 4.33351993560791 1.436521530151367 4.951237678527832 C 1.891147613525391 5.568955421447754 2.361356735229492 6.314766883850098 2.843795776367188 7.182645797729492 C 3.326234817504883 8.05052375793457 3.820903778076172 9.040468215942383 4.324455261230469 10.14645195007324 C 4.8280029296875 11.25243759155273 5.340433120727539 12.47446060180664 5.858394622802734 13.80649662017822 C 6.257785797119141 14.83361053466797 6.624675750732422 15.83576965332031 6.950523376464844 16.76183319091797 C 7.276369094848633 17.68789863586426 7.56117057800293 18.53786849975586 7.796382904052734 19.26060485839844 C 8.031593322753906 19.98334121704102 8.217216491699219 20.57884407043457 8.344703674316406 20.99597549438477 C 8.472190856933594 21.41310501098633 8.541543960571289 21.65186309814453 8.544218063354492 21.66110992431641 L 9.253908157348633 24.11476516723633 L 10.39882278442383 21.83145904541016 C 10.41518497467041 21.79882621765137 10.8375186920166 20.96226501464844 11.57178974151611 19.63029861450195 C 12.30606174468994 18.2983341217041 13.35227012634277 16.47096633911133 14.6163854598999 14.45672416687012 C 15.88050079345703 12.44248199462891 17.36252212524414 10.24136543273926 18.96841621398926 8.161901473999023 C 20.57431030273438 6.082436561584473 22.30407905578613 4.124624252319336 24.06368827819824 2.596994400024414 L 22.75254058837891 1.08673095703125 C 21.97963333129883 1.757740020751953 21.19237899780273 2.520971298217773 20.39221572875977 3.374618530273438 C 19.59205055236816 4.228264808654785 18.77898025512695 5.172328948974609 17.95444107055664 6.205002784729004 C 17.12990379333496 7.237675666809082 16.29389953613281 8.358960151672363 15.4478702545166 9.567049026489258 C 14.60184001922607 10.77513790130615 13.74578666687012 12.07003116607666 12.88114929199219 13.44992637634277 C 12.55147552490234 13.97605895996094 12.23707962036133 14.48845291137695 11.9393424987793 14.98222541809082 C 11.64160346984863 15.47599697113037 11.36052227020264 15.95114803314209 11.09747886657715 16.40279388427734 C 10.83443450927734 16.85444068908691 10.58942890167236 17.28258323669434 10.36384105682373 17.68233680725098 C 10.13825416564941 18.08209037780762 9.932083129882812 18.45345687866211 9.746712684631348 18.79155158996582 C 9.626377105712891 18.4200553894043 9.492481231689453 18.01326751708984 9.346214294433594 17.57831764221191 C 9.199948310852051 17.14336585998535 9.04131031036377 16.68025016784668 8.871492385864258 16.19610214233398 C 8.70167350769043 15.71195316314697 8.520675659179688 15.20677089691162 8.329687118530273 14.68768405914307 C 8.138698577880859 14.16859817504883 7.937719345092773 13.63560676574707 7.727939605712891 13.09584140777588 C 7.171531677246094 11.66420936584473 6.621471405029297 10.35635566711426 6.078678131103516 9.173907279968262 C 5.535884857177734 7.991456985473633 5.000362396240234 6.934412002563477 4.473026275634766 6.00439453125 C 3.945693969726562 5.07437801361084 3.426548004150391 4.271389961242676 2.916513442993164 3.59705924987793 C 2.406478881835938 2.9227294921875 1.905557632446289 2.377054214477539 1.414669036865234 1.961658477783203 L 0.1227340698242188 3.488388061523438 Z" stroke="none" fill="#fff"/>
    </g>
    <path id="Path_11" data-name="Path 11" d="M113.332,144.419c1.873,2.141,3.211,10.347,3.211,10.347s-5.091-7.225-7.493-8.563S111.458,142.278,113.332,144.419Z" transform="translate(54.933 23.604) rotate(21)" fill="#fff" stroke="#fff" stroke-width="1"/>
    <path id="Path_12" data-name="Path 12" d="M113.332,144.419c1.873,2.141,3.211,10.347,3.211,10.347s-5.091-7.225-7.493-8.563S111.458,142.278,113.332,144.419Z" transform="translate(-13 57)" fill="#fff" stroke="#fff" stroke-width="1"/>
    <g id="Path_13" data-name="Path 13" transform="translate(173.098 199.149)" fill="#fff">
      <path d="M7.27,2.641a8.435,8.435,0,0,0-2.109,1.89A34.507,34.507,0,0,0,2.973,7.394c-.681.981-1.283,1.92-1.716,2.614S.564,11.151.564,11.151s.459-.308,1.19-.775S3.487,9.281,4.575,8.642,6.836,7.351,7.907,6.835a10.641,10.641,0,0,1,2.721-.994c.681-.1.968-.429.978-.851A2.172,2.172,0,0,0,10.913,3.6,4.1,4.1,0,0,0,9.239,2.527,2.505,2.505,0,0,0,7.27,2.641Z" stroke="none"/>
      <path d="M 0.84228515625 11.56604766845703 C 0.8603973388671875 11.55391693115234 1.324310302734375 11.24399566650391 2.05029296875 10.78017425537109 C 2.776275634765625 10.31635284423828 3.764312744140625 9.698661804199219 4.830673217773438 9.070976257324219 C 5.89703369140625 8.443290710449219 7.041702270507812 7.805625915527344 8.080963134765625 7.301872253417969 C 9.120208740234375 6.798133850097656 10.05406188964844 6.428291320800781 10.69873046875 6.336288452148438 C 10.98814392089844 6.29498291015625 11.21806335449219 6.218101501464844 11.40071105957031 6.121170043945312 C 11.58334350585938 6.024261474609375 11.71870422363281 5.907310485839844 11.8189697265625 5.785903930664062 C 11.91923522949219 5.664497375488281 11.98440551757812 5.538619995117188 12.02667236328125 5.423843383789062 C 12.06895446777344 5.309059143066406 12.08834838867188 5.205360412597656 12.0970458984375 5.128318786621094 C 12.12702941894531 4.862602233886719 12.07809448242188 4.577339172363281 11.96478271484375 4.290061950683594 C 11.85150146484375 4.002799987792969 11.67385864257812 3.713531494140625 11.44644165039062 3.439811706542969 C 11.21902465820312 3.166084289550781 10.94183349609375 2.907913208007812 10.62945556640625 2.682853698730469 C 10.31706237792969 2.457771301269531 9.969482421875 2.265800476074219 9.601287841796875 2.124458312988281 C 9.37188720703125 2.036415100097656 9.144439697265625 1.971977233886719 8.92041015625 1.931129455566406 C 8.696365356445312 1.890296936035156 8.475738525390625 1.873046875 8.260040283203125 1.879325866699219 C 8.044342041015625 1.885597229003906 7.833541870117188 1.915412902832031 7.629180908203125 1.968711853027344 C 7.4248046875 2.02203369140625 7.226837158203125 2.098831176757812 7.03680419921875 2.1990966796875 C 6.383682250976562 2.543647766113281 5.636444091796875 3.241020202636719 4.880264282226562 4.097923278808594 C 4.124053955078125 4.954818725585938 3.358932495117188 5.971229553222656 2.669998168945312 6.953895568847656 C 1.981063842773438 7.936576843261719 1.368316650390625 8.885505676269531 0.9169464111328125 9.607398986816406 C 0.465576171875 10.32929229736328 0.1755523681640625 10.82417297363281 0.132049560546875 10.89875030517578 L 0.84228515625 11.56604766845703 Z M 9.242919921875 3.058036804199219 C 9.5322265625 3.169097900390625 9.796554565429688 3.317008972167969 10.02944946289062 3.483894348144531 C 10.26235961914062 3.650787353515625 10.46382141113281 3.836647033691406 10.62742614746094 4.023666381835938 C 10.79103088378906 4.210670471191406 10.91679382324219 4.398780822753906 10.99824523925781 4.570152282714844 C 11.0797119140625 4.741531372070312 11.11688232421875 4.896156311035156 11.10334777832031 5.016181945800781 C 11.09609985351562 5.080268859863281 11.06637573242188 5.131813049316406 11.02381896972656 5.173355102539062 C 10.98127746582031 5.214897155761719 10.92593383789062 5.246437072753906 10.86749267578125 5.270561218261719 C 10.80905151367188 5.294662475585938 10.74752807617188 5.311325073242188 10.69259643554688 5.323104858398438 C 10.6376953125 5.334869384765625 10.58940124511719 5.341773986816406 10.55743408203125 5.346328735351562 C 10.069580078125 5.415962219238281 9.449615478515625 5.618415832519531 8.756698608398438 5.906417846679688 C 8.06378173828125 6.194427490234375 7.29791259765625 6.567985534667969 6.51824951171875 6.979835510253906 C 5.73858642578125 7.391700744628906 4.945114135742188 7.841835021972656 4.197021484375 8.28302001953125 C 3.448928833007812 8.724189758300781 2.7462158203125 9.156356811523438 2.148025512695312 9.53228759765625 C 2.531005859375 8.936225891113281 2.963897705078125 8.284378051757812 3.421142578125 7.629600524902344 C 3.878402709960938 6.97479248046875 4.360000610351562 6.317024230957031 4.840377807617188 5.70916748046875 C 5.320755004882812 5.101310729980469 5.799911499023438 4.543357849121094 6.252273559570312 4.088165283203125 C 6.704635620117188 3.6329345703125 7.130218505859375 3.280448913574219 7.50341796875 3.083572387695312 C 7.660568237304688 3.000663757324219 7.819961547851562 2.946891784667969 7.977630615234375 2.915565490722656 C 8.135284423828125 2.884231567382812 8.29119873046875 2.875328063964844 8.441452026367188 2.882148742675781 C 8.591690063476562 2.888984680175781 8.736236572265625 2.911529541015625 8.871124267578125 2.943077087402344 C 9.006027221679688 2.974617004394531 9.131271362304688 3.015190124511719 9.242919921875 3.058036804199219 Z" stroke="none" fill="#fff"/>
    </g>
    <g id="Path_14" data-name="Path 14" transform="translate(169.093 197.377)" fill="#fff">
      <path d="M3.7,1.407a8.435,8.435,0,0,0-1.292,2.52A34.511,34.511,0,0,0,1.4,7.384c-.284,1.16-.51,2.252-.665,3.055S.493,11.755.493,11.755s.318-.452.833-1.15,1.226-1.643,2.013-2.63S4.987,5.959,5.8,5.094a10.641,10.641,0,0,1,2.184-1.9c.6-.335.75-.747.608-1.144A2.172,2.172,0,0,0,7.449.994,4.1,4.1,0,0,0,5.5.595,2.505,2.505,0,0,0,3.7,1.407Z" stroke="none"/>
      <path d="M 0.9022064208984375 12.0426025390625 C 0.914764404296875 12.0247802734375 1.236801147460938 11.56918334960938 1.748344421386719 10.87600708007812 C 2.2598876953125 10.18283081054688 2.9609375 9.2520751953125 3.731529235839844 8.283935546875 C 4.502120971679688 7.3157958984375 5.342247009277344 6.310272216796875 6.131942749023438 5.467544555664062 C 6.921646118164062 4.62481689453125 7.660926818847656 3.94488525390625 8.229812622070312 3.627960205078125 C 8.485198974609375 3.485687255859375 8.67230224609375 3.331512451171875 8.808074951171875 3.175567626953125 C 8.943855285644531 3.019638061523438 9.028305053710938 2.861953735351562 9.078399658203125 2.712677001953125 C 9.128494262695312 2.563400268554688 9.14422607421875 2.422531127929688 9.142562866210938 2.30023193359375 C 9.140899658203125 2.17791748046875 9.121841430664062 2.07415771484375 9.102348327636719 1.999114990234375 C 9.035118103027344 1.74029541015625 8.887191772460938 1.49151611328125 8.678482055664062 1.263931274414062 C 8.469764709472656 1.036346435546875 8.20025634765625 0.8299560546875 7.889854431152344 0.655914306640625 C 7.579452514648438 0.48187255859375 7.2281494140625 0.340179443359375 6.855850219726562 0.24200439453125 C 6.483551025390625 0.143829345703125 6.090263366699219 0.08917236328125 5.695869445800781 0.08917236328125 C 5.450164794921875 0.08917236328125 5.214729309082031 0.11053466796875 4.990936279296875 0.1526947021484375 C 4.767135620117188 0.194854736328125 4.554985046386719 0.2578125 4.355857849121094 0.340972900390625 C 4.156730651855469 0.42413330078125 3.970626831054688 0.5275115966796875 3.798934936523438 0.6505126953125 C 3.627243041992188 0.773529052734375 3.469955444335938 0.916168212890625 3.328468322753906 1.077880859375 C 2.842208862304688 1.63360595703125 2.394515991210938 2.552444458007812 1.995635986328125 3.6234130859375 C 1.596755981445312 4.69439697265625 1.246688842773438 5.917495727539062 0.9556732177734375 7.081787109375 C 0.6646575927734375 8.24609375 0.4326858520507812 9.351577758789062 0.269989013671875 10.18728637695312 C 0.1072998046875 11.02299499511719 0.01389312744140625 11.58892822265625 0 11.67414855957031 L 0.9022064208984375 12.0426025390625 Z M 5.695869445800781 1.08917236328125 C 6.005767822265625 1.08917236328125 6.3055419921875 1.132537841796875 6.582778930664062 1.204879760742188 C 6.860015869140625 1.2772216796875 7.114715576171875 1.3785400390625 7.33447265625 1.494491577148438 C 7.554229736328125 1.610443115234375 7.739044189453125 1.740997314453125 7.876510620117188 1.871795654296875 C 8.01397705078125 2.002593994140625 8.104095458984375 2.133621215820312 8.134468078613281 2.250534057617188 C 8.150680541992188 2.312957763671875 8.141387939453125 2.371734619140625 8.116554260253906 2.425765991210938 C 8.091720581054688 2.47979736328125 8.051353454589844 2.529083251953125 8.00543212890625 2.572540283203125 C 7.959518432617188 2.615982055664062 7.908042907714844 2.653594970703125 7.860992431640625 2.68426513671875 C 7.813949584960938 2.714935302734375 7.771339416503906 2.738677978515625 7.743133544921875 2.75439453125 C 7.312637329101562 2.994232177734375 6.806404113769531 3.405410766601562 6.262725830078125 3.922607421875 C 5.719039916992188 4.439804077148438 5.137908935546875 5.063018798828125 4.5576171875 5.7269287109375 C 3.977333068847656 6.390838623046875 3.39788818359375 7.095428466796875 2.857589721679688 7.775390625 C 2.317283630371094 8.455352783203125 1.816116333007812 9.11065673828125 1.392372131347656 9.675979614257812 C 1.53631591796875 8.982269287109375 1.706863403320312 8.218582153320312 1.899078369140625 7.44342041015625 C 2.091300964355469 6.668243408203125 2.305191040039062 5.881576538085938 2.53582763671875 5.141937255859375 C 2.766464233398438 4.402313232421875 3.013839721679688 3.709701538085938 3.273025512695312 3.12261962890625 C 3.532203674316406 2.5355224609375 3.803192138671875 2.053939819335938 4.081047058105469 1.73638916015625 C 4.19805908203125 1.6026611328125 4.327598571777344 1.495346069335938 4.46356201171875 1.40960693359375 C 4.599517822265625 1.3238525390625 4.741897583007812 1.259658813476562 4.884605407714844 1.212188720703125 C 5.027313232421875 1.164718627929688 5.170333862304688 1.13397216796875 5.307579040527344 1.115081787109375 C 5.44482421875 1.09619140625 5.576286315917969 1.08917236328125 5.695869445800781 1.08917236328125 Z" stroke="none" fill="#fff"/>
    </g>
  </g>
</svg>
