<svg xmlns="http://www.w3.org/2000/svg" xmlns:xlink="http://www.w3.org/1999/xlink" width="700" height="400" viewBox="0 0 700 400">
  <defs>
    <filter id="Rectangle_1" x="46" y="134" width="63" height="63" filterUnits="userSpaceOnUse">
      <feOffset input="SourceAlpha"/>
      <feGaussianBlur stdDeviation="3" result="blur"/>
      <feFlood flood-color="#fff"/>
      <feComposite operator="in" in2="blur"/>
      <feComposite in="SourceGraphic"/>
    </filter>
    <filter id="Ellipse_1" x="391" y="128" width="61" height="61" filterUnits="userSpaceOnUse">
      <feOffset input="SourceAlpha"/>
      <feGaussianBlur stdDeviation="3" result="blur-2"/>
      <feFlood flood-color="#fff700"/>
      <feComposite operator="in" in2="blur-2"/>
      <feComposite in="SourceGraphic"/>
    </filter>
    <filter id="Ellipse_2" x="221" y="113" width="61" height="61" filterUnits="userSpaceOnUse">
      <feOffset input="SourceAlpha"/>
      <feGaussianBlur stdDeviation="3" result="blur-3"/>
      <feFlood flood-color="#fff700"/>
      <feComposite operator="in" in2="blur-3"/>
      <feComposite in="SourceGraphic"/>
    </filter>
    <filter id="Ellipse_3" x="538" y="98" width="61" height="61" filterUnits="userSpaceOnUse">
      <feOffset input="SourceAlpha"/>
      <feGaussianBlur stdDeviation="3" result="blur-4"/>
      <feFlood flood-color="#fff700"/>
      <feComposite operator="in" in2="blur-4"/>
      <feComposite in="SourceGraphic"/>
    </filter>
    <clipPath id="clip-Instruction3">
      <rect width="700" height="400"/>
    </clipPath>
  </defs>
  <g id="Instruction3" clip-path="url(#clip-Instruction3)">
    <rect width="700" height="400" fill="#1f1c1c"/>
    <g transform="matrix(1, 0, 0, 1, 0, 0)" filter="url(#Rectangle_1)">
      <rect id="Rectangle_1-2" data-name="Rectangle 1" width="45" height="45" transform="translate(55 143)" fill="#fff"/>
    </g>
    <text id="Find_and_collect_all_the_coins_to_get_to_the_next_level" data-name="Find and collect all the coins 
to get to the next level" transform="translate(329 40)" fill="#fafafa" font-size="20" font-family="OCRAExtended, OCR A"><tspan x="-187.241" y="0">Find and collect all the coins </tspan><tspan x="-144.961" y="21">to get to the next level</tspan></text>
    <g transform="matrix(1, 0, 0, 1, 0, 0)" filter="url(#Ellipse_1)">
      <circle id="Ellipse_1-2" data-name="Ellipse 1" cx="21.5" cy="21.5" r="21.5" transform="translate(400 137)" fill="#ff0"/>
    </g>
    <g transform="matrix(1, 0, 0, 1, 0, 0)" filter="url(#Ellipse_2)">
      <circle id="Ellipse_2-2" data-name="Ellipse 2" cx="21.5" cy="21.5" r="21.5" transform="translate(230 122)" fill="#ff0"/>
    </g>
    <g transform="matrix(1, 0, 0, 1, 0, 0)" filter="url(#Ellipse_3)">
      <circle id="Ellipse_3-2" data-name="Ellipse 3" cx="21.5" cy="21.5" r="21.5" transform="translate(547 107)" fill="#ff0"/>
    </g>
    <rect id="Rectangle_2" data-name="Rectangle 2" width="154" height="43" transform="translate(0 188)" fill="#35536b"/>
    <rect id="Rectangle_3" data-name="Rectangle 3" width="56" height="43" transform="translate(230 188)" fill="#35536b"/>
    <rect id="Rectangle_4" data-name="Rectangle 4" width="63" height="43" transform="translate(390 188)" fill="#35536b"/>
    <rect id="Rectangle_5" data-name="Rectangle 5" width="61" height="43" transform="translate(538 188)" fill="#35536b"/>
  </g>
</svg>
